<?xml version="1.0" encoding="UTF-8"?>
<svg version="1.1" xmlns="http://www.w3.org/2000/svg" width="300" height="300">
<path d="M0 0 C99 0 198 0 300 0 C300 99 300 198 300 300 C201 300 102 300 0 300 C0 201 0 102 0 0 Z " fill="#3384D8" transform="translate(0,0)"/>
<path d="M0 0 C0.66 0 1.32 0 2 0 C3.19140625 1.5390625 3.19140625 1.5390625 4.5625 3.625 C8.81448917 9.4805374 14.32995427 12.85301255 20.875 15.75 C29.24114161 19.77379557 37.17074821 27.48642077 41 36 C41.36712221 37.32442824 41.7100093 38.65657368 42 40 C42.6290625 39.95359375 43.258125 39.9071875 43.90625 39.859375 C51.52256933 39.53820491 56.06470395 40.94920859 62.05078125 45.58984375 C66.21463182 49.53674019 67.52647596 52.759564 67.8125 58.5 C67.43376427 64.91622881 65.72394272 68.69168314 61 73 C60.41992188 73.53753906 59.83984375 74.07507813 59.2421875 74.62890625 C54.16314395 78.52850664 49.82714787 78.2689635 43.63671875 77.4921875 C41 77 41 77 38 76 C37.79375 76.680625 37.5875 77.36125 37.375 78.0625 C32.88097218 87.66337761 23.1119761 94.44873687 13.3125 98 C-0.19248332 101.30025316 -12.69318377 99.27028643 -24.7109375 92.46484375 C-30.72402989 88.61687507 -34.75349956 82.61712882 -39 77 C-39.825 77.165 -40.65 77.33 -41.5 77.5 C-49.07730672 78.58247239 -54.67563133 78.63516764 -61 74 C-65.72252881 68.96185664 -67.40300002 64.16330118 -67.2734375 57.21875 C-66.66820435 52.30771531 -64.88786489 47.80634345 -61.28125 44.35546875 C-57.29562399 41.4253581 -53.91605973 39.85637856 -49 39.875 C-48.319375 39.87242188 -47.63875 39.86984375 -46.9375 39.8671875 C-45 40 -45 40 -42 41 C-41.690625 39.7934375 -41.690625 39.7934375 -41.375 38.5625 C-37.2859935 27.9682559 -29.82556438 20.1510336 -19.91796875 14.84765625 C-18 14 -18 14 -16 14 C-16.020625 12.72125 -16.04125 11.4425 -16.0625 10.125 C-16.125 6.25 -16.125 6.25 -15 4 C-11.59783062 4.60753025 -9.73127371 5.95154472 -7 8 C-4.85266073 8.70514846 -4.85266073 8.70514846 -3 9 C-2.814375 7.329375 -2.814375 7.329375 -2.625 5.625 C-2 2 -2 2 0 0 Z " fill="#4C2143" transform="translate(150,63)"/>
<path d="M0 0 C1.86328125 1.75390625 1.86328125 1.75390625 3.3125 3.5625 C4.04919922 4.46162109 4.04919922 4.46162109 4.80078125 5.37890625 C7.85950461 9.51366258 7.59601276 14.033227 7 19 C4.9375 22.375 4.9375 22.375 3 25 C3.3297023 26.94527234 3.3297023 26.94527234 4 29 C4.61591687 33.83934682 4.60318223 37.01982888 2 41.25 C-6.52412483 49.89384568 -17.98747873 52.89279542 -29.8125 53.1875 C-39.38998519 53.04260612 -49.44567095 51.08002679 -56.73828125 44.41015625 C-60 40.65228873 -60 40.65228873 -60 38 C-60.66 38 -61.32 38 -62 38 C-62.128 30.448 -62.128 30.448 -61.25 27.375 C-60.71461323 24.76168878 -60.71461323 24.76168878 -62.9375 22.1875 C-66.17606825 17.18243998 -65.30586763 12.97114697 -64.4375 7.375 C-62.36519091 2.50957867 -58.90504357 -0.75634798 -53.99829102 -2.85693359 C-51.86202101 -3.48424896 -49.74987277 -3.96012049 -47.5625 -4.375 C-46.7782666 -4.53363525 -45.9940332 -4.69227051 -45.18603516 -4.85571289 C-30.85519632 -7.53282327 -12.91488855 -7.60563849 0 0 Z " fill="#F6D2AD" transform="translate(179,99)"/>
<path d="M0 0 C0.70568115 0.10924805 1.4113623 0.21849609 2.13842773 0.33105469 C7.84756596 1.36771937 11.830881 3.48877403 15.83984375 7.66796875 C18.13200822 11.78151644 17.79411568 16.21585564 17 20.75 C14.95067561 24.60272986 12.2904928 26.98894014 8.5625 29.1875 C3.61593838 30.2733306 0.26586785 30.39487607 -4.3125 28.0625 C-7.07650505 25.68417008 -8.03714243 24.21628726 -9 20.75 C-9.66 20.75 -10.32 20.75 -11 20.75 C-11 19.43 -11 18.11 -11 16.75 C-14.63 16.75 -18.26 16.75 -22 16.75 C-22.33 18.4 -22.66 20.05 -23 21.75 C-25.86422373 25.80765029 -28.08794239 28.58046247 -33 29.75 C-37.24450609 30.21303703 -39.43631522 30.04268248 -43.25 28.0625 C-46.90698131 24.98731117 -48.64891534 23.03736976 -49.38671875 18.23046875 C-49.67763312 13.50472637 -49.58273358 9.67738874 -46.75 5.75 C-42.43121071 1.4721471 -36.80073997 0.71421874 -31 -0.25 C-29.72125 -0.476875 -28.4425 -0.70375 -27.125 -0.9375 C-17.98641995 -1.81945742 -9.0443089 -1.49050683 0 0 Z " fill="#532644" transform="translate(166,97.25)"/>
<path d="M0 0 C3.96 0 7.92 0 12 0 C16.50779102 4.50779102 16.50779102 4.50779102 16.53125 8.1875 C16.53640625 8.96867188 16.5415625 9.74984375 16.546875 10.5546875 C16.53140625 11.36164063 16.5159375 12.16859375 16.5 13 C16.51546875 13.80695313 16.5309375 14.61390625 16.546875 15.4453125 C16.54171875 16.22648437 16.5365625 17.00765625 16.53125 17.8125 C16.52673828 18.52019531 16.52222656 19.22789062 16.51757812 19.95703125 C16 22 16 22 12 26 C8.04 26 4.08 26 0 26 C0 17.42 0 8.84 0 0 Z " fill="#48254B" transform="translate(100,177)"/>
<path d="M0 0 C4.46623618 0.79754217 5.71029291 2.0907427 8.5 5.625 C9.09375 9.21875 9.09375 9.21875 9 13.125 C8.9896875 14.4140625 8.979375 15.703125 8.96875 17.03125 C8.48678806 20.72629152 7.73839976 22.68435718 5.5 25.625 C2.37057535 27.18971233 -1.11082223 27.32201958 -4.5 26.625 C-6.72265625 25.1328125 -6.72265625 25.1328125 -8.5 22.625 C-8.92806075 19.65219191 -9.10551118 17.15021124 -9.0625 14.1875 C-9.08634766 13.43662109 -9.11019531 12.68574219 -9.13476562 11.91210938 C-9.12368928 7.71417554 -8.83489024 6.05815483 -6.18359375 2.62890625 C-3.5 0.625 -3.5 0.625 0 0 Z " fill="#482146" transform="translate(192.5,176.375)"/>
<path d="M0 0 C1.86328125 1.75390625 1.86328125 1.75390625 3.3125 3.5625 C4.04919922 4.46162109 4.04919922 4.46162109 4.80078125 5.37890625 C7.86335301 9.51886482 7.58534695 14.02835186 7 19 C5.91546245 21.41534564 4.72477676 22.9518276 3 25 C2.01 24.34 1.02 23.68 0 23 C0.48597656 22.45214844 0.97195312 21.90429688 1.47265625 21.33984375 C4.15109367 17.23655983 3.63824293 12.72720588 3 8 C0.87330176 4.27827807 -1.11513492 2.61976933 -5 1 C-18.63962427 -2.21105625 -31.61363582 -2.84272784 -45.5 -0.8125 C-46.63103149 -0.66143799 -46.63103149 -0.66143799 -47.78491211 -0.50732422 C-53.20818608 0.39362437 -56.09091945 2.12108211 -60 6 C-61.27959591 8.55919182 -61.16816536 10.45484028 -61.1875 13.3125 C-61.20167969 14.25738281 -61.21585937 15.20226562 -61.23046875 16.17578125 C-60.98824335 19.14406882 -60.24026607 21.30867165 -59 24 C-59.99 24 -60.98 24 -62 24 C-64.91324401 20.54726636 -65.42975639 17.52424618 -65.2109375 13.046875 C-64.54532747 6.58799246 -62.92218143 3.39358438 -58.03100586 -0.63134766 C-54.73754067 -2.85074492 -51.42657725 -3.64209957 -47.5625 -4.375 C-46.7782666 -4.53363525 -45.9940332 -4.69227051 -45.18603516 -4.85571289 C-30.85519632 -7.53282327 -12.91488855 -7.60563849 0 0 Z " fill="#DCB69C" transform="translate(179,99)"/>
<path d="M0 0 C1.93166016 0.01740234 1.93166016 0.01740234 3.90234375 0.03515625 C5.19269531 0.04417969 6.48304688 0.05320313 7.8125 0.0625 C8.81152344 0.07410156 9.81054688 0.08570313 10.83984375 0.09765625 C11.40234375 2.03515625 11.40234375 2.03515625 11.83984375 4.09765625 C10.83984375 5.09765625 10.83984375 5.09765625 8.5546875 5.1953125 C7.17990234 5.17791016 7.17990234 5.17791016 5.77734375 5.16015625 C4.85824219 5.15113281 3.93914062 5.14210937 2.9921875 5.1328125 C2.28191406 5.12121094 1.57164063 5.10960937 0.83984375 5.09765625 C0.83984375 7.07765625 0.83984375 9.05765625 0.83984375 11.09765625 C2.81984375 11.09765625 4.79984375 11.09765625 6.83984375 11.09765625 C6.83984375 12.41765625 6.83984375 13.73765625 6.83984375 15.09765625 C4.85984375 15.09765625 2.87984375 15.09765625 0.83984375 15.09765625 C0.83984375 17.40765625 0.83984375 19.71765625 0.83984375 22.09765625 C4.46984375 22.09765625 8.09984375 22.09765625 11.83984375 22.09765625 C11.50984375 23.41765625 11.17984375 24.73765625 10.83984375 26.09765625 C8.52740583 26.12451037 6.21488105 26.14398466 3.90234375 26.16015625 C2.61457031 26.17175781 1.32679687 26.18335938 0 26.1953125 C-3.16015625 26.09765625 -3.16015625 26.09765625 -4.16015625 25.09765625 C-4.25962078 23.32906432 -4.29095842 21.55654174 -4.29296875 19.78515625 C-4.29425781 18.71007812 -4.29554687 17.635 -4.296875 16.52734375 C-4.29107422 14.82964844 -4.29107422 14.82964844 -4.28515625 13.09765625 C-4.28902344 11.96585938 -4.29289062 10.8340625 -4.296875 9.66796875 C-4.29558594 8.59289062 -4.29429688 7.5178125 -4.29296875 6.41015625 C-4.29184082 5.41628906 -4.29071289 4.42242187 -4.28955078 3.3984375 C-4.08784451 -0.18812833 -3.68333856 0.11382381 0 0 Z " fill="#482145" transform="translate(124.16015625,176.90234375)"/>
<path d="M0 0 C4.05856999 0.65227018 5.77071097 1.50238806 8.5 4.5625 C8.8125 7.3125 8.8125 7.3125 8.5 9.5625 C6.85 9.5625 5.2 9.5625 3.5 9.5625 C3.17 8.5725 2.84 7.5825 2.5 6.5625 C0.85 6.5625 -0.8 6.5625 -2.5 6.5625 C-2.5 11.1825 -2.5 15.8025 -2.5 20.5625 C-1.18 20.8925 0.14 21.2225 1.5 21.5625 C2.16 20.2425 2.82 18.9225 3.5 17.5625 C5.15 17.5625 6.8 17.5625 8.5 17.5625 C8.02238806 22.93563433 8.02238806 22.93563433 5.9375 25.4375 C2.52836982 27.0109447 -0.82524927 27.47401044 -4.5 26.5625 C-6.71484375 25.0625 -6.71484375 25.0625 -8.5 22.5625 C-8.92806075 19.58969191 -9.10551118 17.08771124 -9.0625 14.125 C-9.08634766 13.37412109 -9.11019531 12.62324219 -9.13476562 11.84960938 C-9.12368676 7.65071982 -8.83338815 5.9942742 -6.18359375 2.5625 C-3.5 0.5625 -3.5 0.5625 0 0 Z " fill="#482248" transform="translate(173.5,176.4375)"/>
<path d="M0 0 C0.33 6.27 0.66 12.54 1 19 C-1.85324437 20.42662219 -3.83454549 20.31033868 -7 20 C-9.69990662 18.20006226 -11.5418865 16.916227 -13 14 C-13.58492738 9.20359551 -14.00314925 5.31663339 -11 1.375 C-8 0 -8 0 0 0 Z " fill="#F6D2AD" transform="translate(106,112)"/>
<path d="M0 0 C1.98 0.495 1.98 0.495 4 1 C5.32 5.62 6.64 10.24 8 15 C10.57146057 12.42853943 10.80117997 10.3949583 11.625 6.875 C11.88539063 5.77929688 12.14578125 4.68359375 12.4140625 3.5546875 C12.60742188 2.71164063 12.80078125 1.86859375 13 1 C14.32 0.67 15.64 0.34 17 0 C17.97848884 3.74906958 17.96705217 6.13758742 16.8203125 9.828125 C16.55089844 10.70984375 16.28148437 11.5915625 16.00390625 12.5 C15.71386719 13.4075 15.42382812 14.315 15.125 15.25 C14.84269531 16.17296875 14.56039062 17.0959375 14.26953125 18.046875 C12.16241338 24.83758662 12.16241338 24.83758662 11 26 C9.33382885 26.04063832 7.66611905 26.042721 6 26 C4.09896103 21.15235062 2.36972021 16.26164508 0.75 11.3125 C0.39421875 10.23613281 0.0384375 9.15976563 -0.328125 8.05078125 C-1.01872525 4.91497431 -0.88352697 3.05269896 0 0 Z " fill="#482145" transform="translate(138,177)"/>
<path d="M0 0 C7.625 0.8125 7.625 0.8125 11 2.5 C13.56215596 5.70269495 13.71215144 7.78434604 13.5 11.80859375 C12.70745253 15.28218073 10.76206768 16.89556748 8 19 C5.26752652 20.36623674 3.01801098 20.128426 0 20 C-1 19 -1 19 -1.02172852 17.14233398 C-0.95103149 15.95619507 -0.95103149 15.95619507 -0.87890625 14.74609375 C-0.83056641 13.89208984 -0.78222656 13.03808594 -0.73242188 12.15820312 C-0.67634766 11.26037109 -0.62027344 10.36253906 -0.5625 9.4375 C-0.51029297 8.53580078 -0.45808594 7.63410156 -0.40429688 6.70507812 C-0.27419751 4.4697345 -0.13922064 2.2347911 0 0 Z " fill="#F8D3AE" transform="translate(194,112)"/>
<path d="M0 0 C0.99 0 1.98 0 3 0 C4.31835938 2.58789062 4.31835938 2.58789062 5.63671875 5.17578125 C7.4719405 7.63150778 9.23470129 8.68678067 12 10 C18.70610742 10.93191139 25.25024927 10.71338068 31 7 C32.68918793 4.73094159 33.78205038 2.5820532 35 0 C35.99 0 36.98 0 38 0 C37.57981092 4.76214292 35.46106792 7.84698525 32 11 C25.78514973 14.88428142 19.16741927 14.68349101 12 14 C7.71749259 12.49736582 4.91792811 10.47906813 2 7 C2 6.34 2 5.68 2 5 C1.34 5 0.68 5 0 5 C0 3.35 0 1.7 0 0 Z " fill="#5A2D48" transform="translate(131,131)"/>
<path d="M0 0 C2.5 0.125 2.5 0.125 3.5 1.125 C3.62557162 3.43493382 3.67575729 5.74918536 3.6875 8.0625 C3.70167969 9.32964844 3.71585938 10.59679687 3.73046875 11.90234375 C3.5 15.125 3.5 15.125 1.5 17.125 C-2.03571429 16.58928571 -2.03571429 16.58928571 -3.5 15.125 C-3.59909302 12.79339945 -3.62970504 10.45870058 -3.625 8.125 C-3.62757813 6.84625 -3.63015625 5.5675 -3.6328125 4.25 C-3.45953902 0.17297695 -3.45953902 0.17297695 0 0 Z " fill="#3380D2" transform="translate(192.5,181.875)"/>
<path d="M0 0 C3.5 0.25 3.5 0.25 5.5 2.25 C5.83015665 5.35347254 6.00531294 7.40781176 4.375 10.125 C1.63083761 11.77149743 -0.3694571 11.64964378 -3.5 11.25 C-5.80163882 7.79754176 -5.84490322 6.30261287 -5.5 2.25 C-3.5 0.25 -3.5 0.25 0 0 Z " fill="#347FD1" transform="translate(37.5,218.75)"/>
<path d="M0 0 C3 0.25 3 0.25 5 2.25 C5.25 5.75 5.25 5.75 5 9.25 C3 11.25 3 11.25 0.0625 11.625 C-3 11.25 -3 11.25 -4.9375 9.5625 C-6.28233625 6.63550346 -6.03115662 5.26415011 -5 2.25 C-3 0.25 -3 0.25 0 0 Z " fill="#3C5896" transform="translate(172,218.75)"/>
<path d="M0 0 C0.99 0.66 1.98 1.32 3 2 C2.00419922 2.11214844 2.00419922 2.11214844 0.98828125 2.2265625 C-3.58217276 2.90712646 -6.42457531 3.55116874 -10.125 6.4375 C-13.1164113 10.72906533 -12.68933036 16.01505311 -12 21 C-11.04498877 23.7521869 -11.04498877 23.7521869 -10 26 C-10.99 26 -11.98 26 -13 26 C-15.91324401 22.54726636 -16.42975639 19.52424618 -16.2109375 15.046875 C-15.65289524 9.6317983 -14.65550055 6.25170935 -10.5625 2.625 C-7.01137075 -0.24351477 -4.46855695 -1.53606645 0 0 Z " fill="#DAB49B" transform="translate(130,97)"/>
<path d="M0 0 C1.65 0 3.3 0 5 0 C6 1 6 1 6.09765625 4.37890625 C6.09098369 5.77347077 6.07902532 7.16801743 6.0625 8.5625 C6.05798828 9.27341797 6.05347656 9.98433594 6.04882812 10.71679688 C6.03700864 12.47790013 6.01907263 14.23896036 6 16 C4.02 16 2.04 16 0 16 C0 10.72 0 5.44 0 0 Z " fill="#3384D8" transform="translate(105,182)"/>
<path d="M0 0 C0.99 0 1.98 0 3 0 C3 1.98 3 3.96 3 6 C4.98 6 6.96 6 9 6 C9 6.99 9 7.98 9 9 C7.02 9 5.04 9 3 9 C3 11.31 3 13.62 3 16 C2.01 16 1.02 16 0 16 C0 13.69 0 11.38 0 9 C-2.31 9 -4.62 9 -7 9 C-7 8.34 -7 7.68 -7 7 C-3.535 6.505 -3.535 6.505 0 6 C0 4.02 0 2.04 0 0 Z " fill="#E6C0A2" transform="translate(128,105)"/>
<path d="M0 0 C2.875 -0.125 2.875 -0.125 6 0 C8 2 8 2 8.25 5.5 C8 9 8 9 6 11 C2.875 11.125 2.875 11.125 0 11 C0 7.37 0 3.74 0 0 Z " fill="#3D538F" transform="translate(246,219)"/>
<path d="M0 0 C3.39914975 1.13304992 4.05254451 2.12518475 6 5 C6.33 3.35 6.66 1.7 7 0 C7.66 0 8.32 0 9 0 C9 3.63 9 7.26 9 11 C8.34 11 7.68 11 7 11 C5.61061923 9.03852126 4.2739589 7.03833424 3 5 C2.67 6.98 2.34 8.96 2 11 C1.34 11 0.68 11 0 11 C0 7.37 0 3.74 0 0 Z " fill="#45315E" transform="translate(205,219)"/>
<path d="M0 0 C0.99 0 1.98 0 3 0 C2.56562648 4.92289989 0.356381 7.48750825 -3 11 C-5.125 12.4375 -5.125 12.4375 -7 13 C-7.99 12.67 -8.98 12.34 -10 12 C-10.33 11.34 -10.66 10.68 -11 10 C-9.9275 9.649375 -8.855 9.29875 -7.75 8.9375 C-3.25917985 7.06101126 -2.02795203 4.29925831 0 0 Z " fill="#5F324B" transform="translate(166,131)"/>
<path d="M0 0 C3.5 0.25 3.5 0.25 5.5 2.25 C5.83015665 5.35347254 6.00531294 7.40781176 4.375 10.125 C1.63083761 11.77149743 -0.3694571 11.64964378 -3.5 11.25 C-5.80163882 7.79754176 -5.84490322 6.30261287 -5.5 2.25 C-3.5 0.25 -3.5 0.25 0 0 Z M-2.5 1.25 C-4.78600028 3.95332305 -4.78600028 3.95332305 -4.1875 6.375 C-3.65421514 8.23593853 -3.65421514 8.23593853 -2.5 9.25 C0 9.41666667 0 9.41666667 2.5 9.25 C3.77003323 8.19689723 3.77003323 8.19689723 3.6875 5.8125 C3.76839983 3.08265325 3.76839983 3.08265325 1.5 1.25 C0.18 1.25 -1.14 1.25 -2.5 1.25 Z " fill="#452E59" transform="translate(37.5,218.75)"/>
<path d="M0 0 C0.66 0 1.32 0 2 0 C2 2.97 2 5.94 2 9 C3.65 8.67 5.3 8.34 7 8 C7.33 5.36 7.66 2.72 8 0 C8.66 0 9.32 0 10 0 C10.25 7.625 10.25 7.625 8 11 C5 11.375 5 11.375 2 11 C-0.67927341 6.98108988 -0.15601248 4.75838077 0 0 Z " fill="#45325F" transform="translate(48,219)"/>
<path d="M0 0 C2.64 0 5.28 0 8 0 C8 0.33 8 0.66 8 1 C6.02 1 4.04 1 2 1 C2 1.99 2 2.98 2 4 C3.32 4 4.64 4 6 4 C6 4.66 6 5.32 6 6 C4.68 6 3.36 6 2 6 C2 6.99 2 7.98 2 9 C3.98 9 5.96 9 8 9 C8 9.66 8 10.32 8 11 C5.36 11 2.72 11 0 11 C0 7.37 0 3.74 0 0 Z " fill="#462D58" transform="translate(95,219)"/>
<path d="M0 0 C2.46996424 2.46996424 2.32331778 3.33897333 2.375 6.75 C2.30240048 11.75936665 1.1928679 14.20846937 -2 18 C-2.99 17.34 -3.98 16.68 -5 16 C-4.52949219 15.46890625 -4.05898437 14.9378125 -3.57421875 14.390625 C-1.6598427 11.48343358 -1.29754261 9.18260923 -0.8125 5.75 C-0.65394531 4.67234375 -0.49539062 3.5946875 -0.33203125 2.484375 C-0.22246094 1.66453125 -0.11289063 0.8446875 0 0 Z " fill="#CEA793" transform="translate(184,106)"/>
<path d="M0 0 C2.64 0 5.28 0 8 0 C8 0.33 8 0.66 8 1 C6.02 1 4.04 1 2 1 C2 2.32 2 3.64 2 5 C3.32 5.33 4.64 5.66 6 6 C4.68 6 3.36 6 2 6 C2 6.99 2 7.98 2 9 C3.98 9 5.96 9 8 9 C8 9.66 8 10.32 8 11 C5.36 11 2.72 11 0 11 C0 7.37 0 3.74 0 0 Z " fill="#462D58" transform="translate(82,219)"/>
<path d="M0 0 C0.99 0 1.98 0 3 0 C3.598125 1.093125 4.19625 2.18625 4.8125 3.3125 C6.29044697 5.91074129 7.69822933 8.04349493 10 10 C9.67 10.66 9.34 11.32 9 12 C6.13302508 10.71480435 4.02392288 9.42870746 2 7 C2 6.34 2 5.68 2 5 C1.34 5 0.68 5 0 5 C0 3.35 0 1.7 0 0 Z " fill="#653950" transform="translate(131,131)"/>
<path d="M0 0 C0.66 0 1.32 0 2 0 C2 2.97 2 5.94 2 9 C3.98 9 5.96 9 8 9 C8 9.66 8 10.32 8 11 C5.36 11 2.72 11 0 11 C0 7.37 0 3.74 0 0 Z " fill="#45315E" transform="translate(108,219)"/>
<path d="M0 0 C3 1 3 1 4 3 C4.99 2.67 5.98 2.34 7 2 C7.33 1.34 7.66 0.68 8 0 C8.66 0.33 9.32 0.66 10 1 C9.2884375 2.0828125 9.2884375 2.0828125 8.5625 3.1875 C7.05847097 5.89475226 6.43400818 7.96194275 6 11 C5.34 11 4.68 11 4 11 C3.71125 9.9275 3.4225 8.855 3.125 7.75 C2.27179891 4.90599636 1.4363497 2.56491017 0 0 Z " fill="#462D58" transform="translate(18,219)"/>
<path d="M0 0 C0 0.66 0 1.32 0 2 C-4.95 2.33 -9.9 2.66 -15 3 C-10.77398726 -1.22601274 -5.55329835 -1.35446301 0 0 Z " fill="#DEB89D" transform="translate(143,95)"/>
<path d="M0 0 C2.31 0 4.62 0 7 0 C6.67 1.32 6.34 2.64 6 4 C4.125 4.625 4.125 4.625 2 5 C1.34 4.34 0.68 3.68 0 3 C0 2.01 0 1.02 0 0 Z " fill="#6B3E53" transform="translate(145,122)"/>
<path d="M0 0 C0.33 0 0.66 0 1 0 C1.04898438 0.59167969 1.09796875 1.18335937 1.1484375 1.79296875 C1.56456867 6.19104472 2.04965595 9.96928897 4 14 C3.01 14 2.02 14 1 14 C0 13 0 13 -0.09765625 10.05859375 C-0.08605469 8.86363281 -0.07445313 7.66867188 -0.0625 6.4375 C-0.05347656 5.23996094 -0.04445313 4.04242188 -0.03515625 2.80859375 C-0.02355469 1.88175781 -0.01195313 0.95492187 0 0 Z " fill="#BE9689" transform="translate(116,109)"/>
<path d="M0 0 C0.99 0 1.98 0 3 0 C2.25 4.75 2.25 4.75 0 7 C-0.99 6.34 -1.98 5.68 -3 5 C-1.6875 2.5 -1.6875 2.5 0 0 Z " fill="#774B5B" transform="translate(166,131)"/>
<path d="M0 0 C0.99 0.66 1.98 1.32 3 2 C-0.3 2 -3.6 2 -7 2 C-7 1.34 -7 0.68 -7 0 C-3.8195064 -1.06016453 -3.04021693 -1.04507457 0 0 Z " fill="#C7A08F" transform="translate(130,97)"/>
<path d="M0 0 C0.99 0.33 1.98 0.66 3 1 C3 2.32 3 3.64 3 5 C1.68 5 0.36 5 -1 5 C-0.67 3.35 -0.34 1.7 0 0 Z " fill="#E0BA9E" transform="translate(169,116)"/>
<path d="M0 0 C0.99 0.33 1.98 0.66 3 1 C3 2.32 3 3.64 3 5 C1.68 5 0.36 5 -1 5 C-0.67 3.35 -0.34 1.7 0 0 Z " fill="#DCB69C" transform="translate(169,105)"/>
</svg>
